%
M48
M72
T01C0.01969
T02C0.02362
T03C0.02756
T04C0.04000
T05C0.07874
T06C0.12598
T07C0.16142
%
T01
X81969Y26819
X87432Y30885
X81787Y33994
X95219Y39503
X100435Y39639
X115407Y38516
X115148Y43960
X108780Y49719
X101108Y48868
X80738Y47044
X81730Y56251
X78245Y58052
X94174Y60899
X99170Y61286
X102741Y73551
X145580Y69585
X161565Y62259
X145568Y59130
X126728Y41104
X89423Y25697
X23600Y62880
X42341Y69984
X23539Y78869
X183404Y70723
X191138Y67365
X196290Y61696
X196257Y43185
T02
X11925Y25801
X11925Y53065
T03
X23736Y49423
X23736Y29738
T04
X57878Y24747
X60430Y49484
X50430Y49484
X34839Y69366
X34839Y79406
X60430Y79406
X86021Y79406
X96021Y79406
X106021Y79406
X116021Y79406
X172635Y75469
X188157Y77608
X198225Y77831
X172635Y65469
X172635Y55469
X172635Y45469
X162635Y45469
X152635Y45469
X152635Y35469
X172635Y35469
X172635Y25469
X184723Y25469
T05
X164367Y70941
T06
X194288Y33539
X15154Y70941
T07
X188383Y52240
M30
