G75*
%MOIN*%
%OFA0B0*%
%FSLAX25Y25*%
%IPPOS*%
%LPD*%
%AMOC8*
5,1,8,0,0,1.08239X$1,22.5*
%
%ADD10C,0.00300*%
%ADD11C,0.00200*%
%ADD12C,0.00600*%
%ADD13C,0.00100*%
%ADD14C,0.00800*%
%ADD15R,0.03000X0.01800*%
%ADD16R,0.01800X0.03000*%
%ADD17C,0.00400*%
%ADD18C,0.00197*%
D10*
X0035803Y0022641D02*
X0035803Y0023124D01*
X0036287Y0023608D01*
X0035803Y0024092D01*
X0036287Y0024576D01*
X0037738Y0024576D01*
X0037738Y0023608D02*
X0036287Y0023608D01*
X0035803Y0022641D02*
X0037738Y0022641D01*
X0040603Y0022641D02*
X0042538Y0023608D01*
X0040603Y0024576D01*
X0040119Y0025587D02*
X0039635Y0026071D01*
X0039635Y0027038D01*
X0040119Y0027522D01*
X0042054Y0025587D01*
X0042538Y0026071D01*
X0042538Y0027038D01*
X0042054Y0027522D01*
X0040119Y0027522D01*
X0042054Y0028534D02*
X0042054Y0029017D01*
X0042538Y0029017D01*
X0042538Y0028534D01*
X0042054Y0028534D01*
X0042054Y0030007D02*
X0041570Y0030007D01*
X0041087Y0030491D01*
X0041087Y0031458D01*
X0041570Y0031942D01*
X0042054Y0031942D01*
X0042538Y0031458D01*
X0042538Y0030491D01*
X0042054Y0030007D01*
X0041087Y0030491D02*
X0040603Y0030007D01*
X0040119Y0030007D01*
X0039635Y0030491D01*
X0039635Y0031458D01*
X0040119Y0031942D01*
X0040603Y0031942D01*
X0041087Y0031458D01*
X0037738Y0031466D02*
X0037738Y0030498D01*
X0037738Y0030982D02*
X0035803Y0030982D01*
X0035803Y0030498D01*
X0035803Y0029501D02*
X0035803Y0028534D01*
X0035319Y0029017D02*
X0037254Y0029017D01*
X0037738Y0029501D01*
X0036770Y0027522D02*
X0036287Y0027522D01*
X0035803Y0027038D01*
X0035803Y0026071D01*
X0036287Y0025587D01*
X0037254Y0025587D01*
X0037738Y0026071D01*
X0037738Y0027038D01*
X0036770Y0027522D02*
X0036770Y0025587D01*
X0040119Y0025587D02*
X0042054Y0025587D01*
X0034835Y0030982D02*
X0034352Y0030982D01*
X0035803Y0032462D02*
X0037254Y0032462D01*
X0037738Y0032946D01*
X0037738Y0034397D01*
X0035803Y0034397D01*
X0035803Y0035409D02*
X0035803Y0035893D01*
X0036287Y0036376D01*
X0035803Y0036860D01*
X0036287Y0037344D01*
X0037738Y0037344D01*
X0037738Y0036376D02*
X0036287Y0036376D01*
X0035803Y0035409D02*
X0037738Y0035409D01*
X0037738Y0038355D02*
X0037738Y0038839D01*
X0037254Y0038839D01*
X0037254Y0038355D01*
X0037738Y0038355D01*
X0037738Y0039829D02*
X0037738Y0041280D01*
X0037254Y0041764D01*
X0036287Y0041764D01*
X0035803Y0041280D01*
X0035803Y0039829D01*
X0038705Y0039829D01*
X0037738Y0042775D02*
X0037738Y0043743D01*
X0037738Y0043259D02*
X0034835Y0043259D01*
X0034835Y0042775D01*
X0043667Y0045727D02*
X0044151Y0045244D01*
X0046086Y0045244D01*
X0046569Y0045727D01*
X0046569Y0046695D01*
X0046086Y0047179D01*
X0045118Y0047179D01*
X0045118Y0046211D01*
X0044151Y0047179D02*
X0043667Y0046695D01*
X0043667Y0045727D01*
X0043667Y0048190D02*
X0046569Y0050125D01*
X0043667Y0050125D01*
X0043667Y0051137D02*
X0043667Y0052588D01*
X0044151Y0053072D01*
X0046086Y0053072D01*
X0046569Y0052588D01*
X0046569Y0051137D01*
X0043667Y0051137D01*
X0043667Y0048190D02*
X0046569Y0048190D01*
X0029622Y0064940D02*
X0028654Y0063972D01*
X0026719Y0063972D01*
X0028654Y0065907D02*
X0029622Y0064940D01*
X0028654Y0065907D02*
X0026719Y0065907D01*
X0027687Y0066919D02*
X0027687Y0067403D01*
X0029622Y0067403D01*
X0029622Y0067886D02*
X0029622Y0066919D01*
X0026719Y0067403D02*
X0026236Y0067403D01*
X0027687Y0068883D02*
X0027687Y0070334D01*
X0028171Y0070818D01*
X0029622Y0070818D01*
X0029622Y0068883D02*
X0027687Y0068883D01*
X0027203Y0074130D02*
X0029138Y0074130D01*
X0029622Y0074614D01*
X0029622Y0075582D01*
X0029138Y0076065D01*
X0028171Y0076065D01*
X0028171Y0075098D01*
X0027203Y0076065D02*
X0026719Y0075582D01*
X0026719Y0074614D01*
X0027203Y0074130D01*
X0026719Y0077077D02*
X0029622Y0079012D01*
X0026719Y0079012D01*
X0026719Y0080024D02*
X0026719Y0081475D01*
X0027203Y0081959D01*
X0029138Y0081959D01*
X0029622Y0081475D01*
X0029622Y0080024D01*
X0026719Y0080024D01*
X0026719Y0077077D02*
X0029622Y0077077D01*
X0064553Y0076692D02*
X0066488Y0076692D01*
X0067455Y0075725D01*
X0066488Y0074758D01*
X0064553Y0074758D01*
X0065036Y0077704D02*
X0066971Y0077704D01*
X0067455Y0078188D01*
X0067455Y0079155D01*
X0066971Y0079639D01*
X0066971Y0080651D02*
X0065036Y0080651D01*
X0064553Y0081134D01*
X0064553Y0082102D01*
X0065036Y0082586D01*
X0066971Y0082586D02*
X0067455Y0082102D01*
X0067455Y0081134D01*
X0066971Y0080651D01*
X0065036Y0079639D02*
X0064553Y0079155D01*
X0064553Y0078188D01*
X0065036Y0077704D01*
X0091785Y0074444D02*
X0091785Y0073960D01*
X0092269Y0073476D01*
X0093237Y0073476D01*
X0093720Y0072992D01*
X0093720Y0072509D01*
X0093237Y0072025D01*
X0092269Y0072025D01*
X0091785Y0072509D01*
X0094732Y0072509D02*
X0095216Y0072025D01*
X0096183Y0072025D01*
X0096667Y0072509D01*
X0097678Y0072992D02*
X0099613Y0074927D01*
X0097678Y0074927D02*
X0097678Y0072025D01*
X0098162Y0073476D02*
X0099613Y0072025D01*
X0096667Y0074444D02*
X0096183Y0074927D01*
X0095216Y0074927D01*
X0094732Y0074444D01*
X0094732Y0072509D01*
X0093720Y0074444D02*
X0093237Y0074927D01*
X0092269Y0074927D01*
X0091785Y0074444D01*
X0112015Y0074927D02*
X0112015Y0072025D01*
X0113950Y0072025D02*
X0113950Y0074927D01*
X0112982Y0073960D01*
X0112015Y0074927D01*
X0114961Y0074444D02*
X0114961Y0072509D01*
X0115445Y0072025D01*
X0116412Y0072025D01*
X0116896Y0072509D01*
X0116896Y0074444D01*
X0116412Y0074927D01*
X0115445Y0074927D01*
X0114961Y0074444D01*
X0117908Y0074444D02*
X0118391Y0074927D01*
X0119359Y0074927D01*
X0119843Y0074444D01*
X0119359Y0073476D02*
X0118391Y0073476D01*
X0117908Y0073960D01*
X0117908Y0074444D01*
X0119359Y0073476D02*
X0119843Y0072992D01*
X0119843Y0072509D01*
X0119359Y0072025D01*
X0118391Y0072025D01*
X0117908Y0072509D01*
X0120854Y0072025D02*
X0121822Y0072025D01*
X0121338Y0072025D02*
X0121338Y0074927D01*
X0120854Y0074927D02*
X0121822Y0074927D01*
X0111031Y0086644D02*
X0111514Y0087128D01*
X0111514Y0089063D01*
X0111031Y0089547D01*
X0110063Y0089547D01*
X0109579Y0089063D01*
X0109579Y0087128D01*
X0110063Y0086644D01*
X0111031Y0086644D01*
X0108568Y0087128D02*
X0108568Y0087612D01*
X0108084Y0088096D01*
X0107117Y0088096D01*
X0106633Y0088579D01*
X0106633Y0089063D01*
X0107117Y0089547D01*
X0108084Y0089547D01*
X0108568Y0089063D01*
X0105636Y0089547D02*
X0104669Y0089547D01*
X0105152Y0089547D02*
X0105152Y0086644D01*
X0104669Y0086644D02*
X0105636Y0086644D01*
X0106633Y0087128D02*
X0107117Y0086644D01*
X0108084Y0086644D01*
X0108568Y0087128D01*
X0103657Y0086644D02*
X0103657Y0089547D01*
X0102690Y0088579D01*
X0101722Y0089547D01*
X0101722Y0086644D01*
D11*
X0090846Y0071839D02*
X0090112Y0070738D01*
X0089379Y0071839D01*
X0088645Y0070738D02*
X0090846Y0070738D01*
X0090479Y0069996D02*
X0090846Y0069629D01*
X0090846Y0068895D01*
X0090479Y0068528D01*
X0089745Y0068528D02*
X0089379Y0069262D01*
X0089379Y0069629D01*
X0089745Y0069996D01*
X0090479Y0069996D01*
X0089745Y0068528D02*
X0088645Y0068528D01*
X0088645Y0069996D01*
X0090846Y0067786D02*
X0090846Y0066318D01*
X0090846Y0067052D02*
X0088645Y0067052D01*
X0089379Y0066318D01*
X0075691Y0057490D02*
X0074223Y0057490D01*
X0074223Y0055288D01*
X0073481Y0055288D02*
X0073481Y0056756D01*
X0074223Y0056389D02*
X0074957Y0056389D01*
X0073481Y0055288D02*
X0072380Y0055288D01*
X0072013Y0055655D01*
X0072013Y0056756D01*
X0070537Y0057490D02*
X0070537Y0055288D01*
X0069803Y0055288D02*
X0071271Y0055288D01*
X0069065Y0055288D02*
X0069065Y0055655D01*
X0068698Y0055655D01*
X0068698Y0055288D01*
X0069065Y0055288D01*
X0067956Y0055655D02*
X0067589Y0055288D01*
X0066855Y0055288D01*
X0066488Y0055655D01*
X0067956Y0057123D01*
X0067956Y0055655D01*
X0066488Y0055655D02*
X0066488Y0057123D01*
X0066855Y0057490D01*
X0067589Y0057490D01*
X0067956Y0057123D01*
X0069803Y0056756D02*
X0070537Y0057490D01*
X0056584Y0051173D02*
X0056584Y0050440D01*
X0056217Y0050073D01*
X0054749Y0051540D01*
X0056217Y0051540D01*
X0056584Y0051173D01*
X0056217Y0050073D02*
X0054749Y0050073D01*
X0054382Y0050440D01*
X0054382Y0051173D01*
X0054749Y0051540D01*
X0055116Y0049331D02*
X0056584Y0049331D01*
X0055483Y0049331D02*
X0055483Y0047863D01*
X0055116Y0047863D02*
X0054382Y0048597D01*
X0055116Y0049331D01*
X0055116Y0047863D02*
X0056584Y0047863D01*
X0069302Y0048215D02*
X0070036Y0048949D01*
X0070036Y0046747D01*
X0069302Y0046747D02*
X0070770Y0046747D01*
X0071512Y0046747D02*
X0071512Y0048949D01*
X0072246Y0048215D01*
X0072980Y0048949D01*
X0072980Y0046747D01*
X0072833Y0040832D02*
X0072833Y0038630D01*
X0071365Y0038630D02*
X0071365Y0040832D01*
X0072099Y0040098D01*
X0072833Y0040832D01*
X0069889Y0040832D02*
X0069155Y0040098D01*
X0069889Y0040832D02*
X0069889Y0038630D01*
X0069155Y0038630D02*
X0070623Y0038630D01*
X0050254Y0027290D02*
X0050254Y0025822D01*
X0050254Y0026556D02*
X0052456Y0026556D01*
X0052456Y0025080D02*
X0050254Y0025080D01*
X0050254Y0023612D02*
X0052456Y0025080D01*
X0052456Y0023612D02*
X0050254Y0023612D01*
X0050988Y0022870D02*
X0052456Y0022870D01*
X0051355Y0022870D02*
X0051355Y0021403D01*
X0050988Y0021403D02*
X0050254Y0022137D01*
X0050988Y0022870D01*
X0050988Y0021403D02*
X0052456Y0021403D01*
X0129108Y0048849D02*
X0130576Y0050317D01*
X0130576Y0048849D01*
X0130209Y0048482D01*
X0129475Y0048482D01*
X0129108Y0048849D01*
X0129108Y0050317D01*
X0129475Y0050684D01*
X0130209Y0050684D01*
X0130576Y0050317D01*
X0132423Y0049950D02*
X0133156Y0050684D01*
X0133156Y0048482D01*
X0132423Y0048482D02*
X0133890Y0048482D01*
X0134632Y0048849D02*
X0134632Y0049950D01*
X0134632Y0048849D02*
X0134999Y0048482D01*
X0136100Y0048482D01*
X0136100Y0049950D01*
X0136842Y0049583D02*
X0137576Y0049583D01*
X0136842Y0048482D02*
X0136842Y0050684D01*
X0138310Y0050684D01*
X0139907Y0050448D02*
X0139907Y0051916D01*
X0140274Y0051916D01*
X0141742Y0050448D01*
X0142109Y0050448D01*
X0142109Y0049340D02*
X0139907Y0049340D01*
X0141008Y0048239D01*
X0141008Y0049706D01*
X0141375Y0052658D02*
X0140641Y0053759D01*
X0141375Y0052658D02*
X0142109Y0053759D01*
X0142109Y0052658D02*
X0139907Y0052658D01*
X0131685Y0048849D02*
X0131685Y0048482D01*
X0131318Y0048482D01*
X0131318Y0048849D01*
X0131685Y0048849D01*
X0139866Y0040040D02*
X0140233Y0040040D01*
X0141701Y0038572D01*
X0142068Y0038572D01*
X0142068Y0037832D02*
X0141334Y0036731D01*
X0140600Y0037832D01*
X0139866Y0038572D02*
X0139866Y0040040D01*
X0139866Y0036731D02*
X0142068Y0036731D01*
X0142068Y0035622D02*
X0139866Y0035622D01*
X0140967Y0034521D01*
X0140967Y0035989D01*
X0158088Y0035948D02*
X0158455Y0035581D01*
X0158088Y0035948D02*
X0158088Y0036682D01*
X0158455Y0037049D01*
X0158822Y0037049D01*
X0160290Y0035581D01*
X0160290Y0037049D01*
X0159923Y0034839D02*
X0158455Y0034839D01*
X0158088Y0034472D01*
X0158088Y0033371D01*
X0160290Y0033371D01*
X0160290Y0034472D01*
X0159923Y0034839D01*
X0178005Y0035307D02*
X0178005Y0034206D01*
X0180207Y0034206D01*
X0180207Y0035307D01*
X0179840Y0035674D01*
X0178372Y0035674D01*
X0178005Y0035307D01*
X0178739Y0036416D02*
X0178005Y0037150D01*
X0178739Y0037884D01*
X0180207Y0037884D01*
X0179106Y0037884D02*
X0179106Y0036416D01*
X0178739Y0036416D02*
X0180207Y0036416D01*
X0179840Y0033464D02*
X0180207Y0033097D01*
X0180207Y0032363D01*
X0179840Y0031996D01*
X0179106Y0032363D02*
X0178739Y0031996D01*
X0178372Y0031996D01*
X0178005Y0032363D01*
X0178005Y0033097D01*
X0178372Y0033464D01*
X0179106Y0033097D02*
X0179473Y0033464D01*
X0179840Y0033464D01*
X0179106Y0033097D02*
X0179106Y0032363D01*
X0178739Y0042996D02*
X0179106Y0043363D01*
X0179106Y0044096D01*
X0179473Y0044463D01*
X0179840Y0044463D01*
X0180207Y0044096D01*
X0180207Y0043363D01*
X0179840Y0042996D01*
X0178739Y0042996D02*
X0178372Y0042996D01*
X0178005Y0043363D01*
X0178005Y0044096D01*
X0178372Y0044463D01*
X0178372Y0045205D02*
X0179840Y0045205D01*
X0180207Y0045572D01*
X0180207Y0046306D01*
X0179840Y0046673D01*
X0180207Y0047415D02*
X0178005Y0047415D01*
X0178372Y0046673D02*
X0178005Y0046306D01*
X0178005Y0045572D01*
X0178372Y0045205D01*
X0180207Y0047415D02*
X0180207Y0048883D01*
X0179675Y0062811D02*
X0180409Y0063545D01*
X0179675Y0064279D01*
X0178207Y0064279D01*
X0178574Y0065021D02*
X0180042Y0065021D01*
X0180409Y0065388D01*
X0180409Y0066122D01*
X0180042Y0066489D01*
X0180042Y0067231D02*
X0180409Y0067598D01*
X0180409Y0068332D01*
X0180042Y0068699D01*
X0178574Y0068699D02*
X0178207Y0068332D01*
X0178207Y0067598D01*
X0178574Y0067231D01*
X0180042Y0067231D01*
X0178574Y0066489D02*
X0178207Y0066122D01*
X0178207Y0065388D01*
X0178574Y0065021D01*
X0178207Y0062811D02*
X0179675Y0062811D01*
X0180409Y0073533D02*
X0178207Y0073533D01*
X0178207Y0074634D01*
X0178574Y0075001D01*
X0180042Y0075001D01*
X0180409Y0074634D01*
X0180409Y0073533D01*
X0180042Y0075743D02*
X0180409Y0076110D01*
X0180409Y0076844D01*
X0180042Y0077211D01*
X0179308Y0077211D01*
X0178941Y0076844D01*
X0178941Y0076477D01*
X0179308Y0075743D01*
X0178207Y0075743D01*
X0178207Y0077211D01*
X0052246Y0074868D02*
X0050779Y0074868D01*
X0050779Y0072667D01*
X0050037Y0072667D02*
X0050037Y0074134D01*
X0050779Y0073767D02*
X0051512Y0073767D01*
X0050037Y0072667D02*
X0048936Y0072667D01*
X0048569Y0073034D01*
X0048569Y0074134D01*
X0047827Y0074501D02*
X0046359Y0073034D01*
X0046726Y0072667D01*
X0047460Y0072667D01*
X0047827Y0073034D01*
X0047827Y0074501D01*
X0047460Y0074868D01*
X0046726Y0074868D01*
X0046359Y0074501D01*
X0046359Y0073034D01*
X0045617Y0072667D02*
X0044149Y0072667D01*
X0044883Y0072667D02*
X0044883Y0074868D01*
X0044149Y0074134D01*
X0043543Y0066106D02*
X0043543Y0064638D01*
X0045745Y0064638D01*
X0045745Y0063896D02*
X0044277Y0063896D01*
X0044644Y0064638D02*
X0044644Y0065372D01*
X0045745Y0063896D02*
X0045745Y0062795D01*
X0045378Y0062428D01*
X0044277Y0062428D01*
X0045745Y0061686D02*
X0045745Y0060218D01*
X0045745Y0060952D02*
X0043543Y0060952D01*
X0044277Y0060218D01*
D12*
X0055619Y0063224D02*
X0055989Y0063224D01*
X0055619Y0063224D02*
X0055619Y0069602D01*
X0055989Y0069602D01*
X0059162Y0069602D02*
X0063273Y0069602D01*
X0066446Y0069602D02*
X0066816Y0069602D01*
X0066816Y0063224D01*
X0066446Y0063224D01*
X0063273Y0063224D02*
X0062902Y0063224D01*
X0059532Y0063224D02*
X0059162Y0063224D01*
X0090688Y0063429D02*
X0118286Y0063429D01*
X0118286Y0037229D01*
X0116889Y0035831D01*
X0090688Y0035831D01*
X0090688Y0063429D01*
X0113873Y0038830D02*
X0113875Y0038905D01*
X0113881Y0038979D01*
X0113891Y0039053D01*
X0113904Y0039126D01*
X0113922Y0039199D01*
X0113943Y0039270D01*
X0113968Y0039341D01*
X0113997Y0039410D01*
X0114030Y0039477D01*
X0114066Y0039542D01*
X0114105Y0039606D01*
X0114147Y0039667D01*
X0114193Y0039726D01*
X0114242Y0039783D01*
X0114294Y0039836D01*
X0114348Y0039887D01*
X0114405Y0039936D01*
X0114465Y0039980D01*
X0114527Y0040022D01*
X0114591Y0040061D01*
X0114657Y0040096D01*
X0114724Y0040127D01*
X0114794Y0040155D01*
X0114864Y0040179D01*
X0114936Y0040200D01*
X0115009Y0040216D01*
X0115082Y0040229D01*
X0115157Y0040238D01*
X0115231Y0040243D01*
X0115306Y0040244D01*
X0115380Y0040241D01*
X0115455Y0040234D01*
X0115528Y0040223D01*
X0115602Y0040209D01*
X0115674Y0040190D01*
X0115745Y0040168D01*
X0115815Y0040142D01*
X0115884Y0040112D01*
X0115950Y0040079D01*
X0116015Y0040042D01*
X0116078Y0040002D01*
X0116139Y0039958D01*
X0116197Y0039912D01*
X0116253Y0039862D01*
X0116306Y0039810D01*
X0116357Y0039755D01*
X0116404Y0039697D01*
X0116448Y0039637D01*
X0116489Y0039574D01*
X0116527Y0039510D01*
X0116561Y0039444D01*
X0116592Y0039375D01*
X0116619Y0039306D01*
X0116642Y0039235D01*
X0116661Y0039163D01*
X0116677Y0039090D01*
X0116689Y0039016D01*
X0116697Y0038942D01*
X0116701Y0038867D01*
X0116701Y0038793D01*
X0116697Y0038718D01*
X0116689Y0038644D01*
X0116677Y0038570D01*
X0116661Y0038497D01*
X0116642Y0038425D01*
X0116619Y0038354D01*
X0116592Y0038285D01*
X0116561Y0038216D01*
X0116527Y0038150D01*
X0116489Y0038086D01*
X0116448Y0038023D01*
X0116404Y0037963D01*
X0116357Y0037905D01*
X0116306Y0037850D01*
X0116253Y0037798D01*
X0116197Y0037748D01*
X0116139Y0037702D01*
X0116078Y0037658D01*
X0116015Y0037618D01*
X0115950Y0037581D01*
X0115884Y0037548D01*
X0115815Y0037518D01*
X0115745Y0037492D01*
X0115674Y0037470D01*
X0115602Y0037451D01*
X0115528Y0037437D01*
X0115455Y0037426D01*
X0115380Y0037419D01*
X0115306Y0037416D01*
X0115231Y0037417D01*
X0115157Y0037422D01*
X0115082Y0037431D01*
X0115009Y0037444D01*
X0114936Y0037460D01*
X0114864Y0037481D01*
X0114794Y0037505D01*
X0114724Y0037533D01*
X0114657Y0037564D01*
X0114591Y0037599D01*
X0114527Y0037638D01*
X0114465Y0037680D01*
X0114405Y0037724D01*
X0114348Y0037773D01*
X0114294Y0037824D01*
X0114242Y0037877D01*
X0114193Y0037934D01*
X0114147Y0037993D01*
X0114105Y0038054D01*
X0114066Y0038118D01*
X0114030Y0038183D01*
X0113997Y0038250D01*
X0113968Y0038319D01*
X0113943Y0038390D01*
X0113922Y0038461D01*
X0113904Y0038534D01*
X0113891Y0038607D01*
X0113881Y0038681D01*
X0113875Y0038755D01*
X0113873Y0038830D01*
D13*
X0113669Y0041292D02*
X0111897Y0041292D01*
X0111132Y0041292D02*
X0110246Y0042178D01*
X0109360Y0041292D01*
X0109360Y0043950D01*
X0108594Y0043950D02*
X0106822Y0043950D01*
X0106057Y0043507D02*
X0105614Y0043950D01*
X0104728Y0043950D01*
X0104284Y0043507D01*
X0104284Y0042621D01*
X0105171Y0042621D01*
X0106057Y0041735D02*
X0106057Y0043507D01*
X0106057Y0041735D02*
X0105614Y0041292D01*
X0104728Y0041292D01*
X0104284Y0041735D01*
X0103519Y0042178D02*
X0102633Y0041292D01*
X0101747Y0042178D01*
X0101747Y0043950D01*
X0100981Y0043507D02*
X0100538Y0043950D01*
X0099652Y0043950D01*
X0099209Y0043507D01*
X0099209Y0043064D01*
X0099652Y0042621D01*
X0100095Y0042621D01*
X0099652Y0042621D02*
X0099209Y0042178D01*
X0099209Y0041735D01*
X0099652Y0041292D01*
X0100538Y0041292D01*
X0100981Y0041735D01*
X0101747Y0042621D02*
X0103519Y0042621D01*
X0103519Y0042178D02*
X0103519Y0043950D01*
X0107708Y0042621D02*
X0108594Y0042621D01*
X0108594Y0041292D02*
X0108594Y0043950D01*
X0111132Y0043950D02*
X0111132Y0041292D01*
X0112783Y0041292D02*
X0112783Y0043950D01*
X0114435Y0043950D02*
X0114435Y0042178D01*
X0115321Y0041292D01*
X0116207Y0042178D01*
X0116207Y0043950D01*
X0116207Y0042621D02*
X0114435Y0042621D01*
X0108594Y0041292D02*
X0106822Y0041292D01*
X0098444Y0041735D02*
X0098001Y0041292D01*
X0097115Y0041292D01*
X0096672Y0041735D01*
X0096672Y0042178D01*
X0098444Y0043950D01*
X0096672Y0043950D01*
X0095906Y0043507D02*
X0095906Y0043064D01*
X0095463Y0042621D01*
X0094577Y0042621D01*
X0094134Y0043064D01*
X0094134Y0043507D01*
X0094577Y0043950D01*
X0095463Y0043950D01*
X0095906Y0043507D01*
X0095463Y0042621D02*
X0095906Y0042178D01*
X0095906Y0041735D01*
X0095463Y0041292D01*
X0094577Y0041292D01*
X0094134Y0041735D01*
X0094134Y0042178D01*
X0094577Y0042621D01*
X0093369Y0043064D02*
X0092040Y0043064D01*
X0091597Y0042621D01*
X0091597Y0041735D01*
X0092040Y0041292D01*
X0093369Y0041292D01*
X0093369Y0043950D01*
D14*
X0076879Y0049755D02*
X0076879Y0054755D01*
X0065879Y0054755D01*
X0065879Y0049755D01*
X0076879Y0049755D01*
X0062580Y0042007D02*
X0057069Y0042007D01*
X0062580Y0042007D02*
X0062580Y0031771D01*
X0062580Y0030983D01*
X0057069Y0030983D01*
X0057069Y0031771D01*
X0062580Y0031771D01*
X0062187Y0031377D02*
X0057069Y0031377D01*
X0051557Y0031377D02*
X0046439Y0031377D01*
X0046045Y0030983D02*
X0046045Y0031771D01*
X0051557Y0031771D01*
X0051557Y0030983D01*
X0046045Y0030983D01*
X0046045Y0031771D02*
X0046045Y0042007D01*
X0051557Y0042007D01*
X0053382Y0056137D02*
X0046382Y0056137D01*
X0046382Y0070737D01*
X0053382Y0070737D01*
X0053382Y0056137D01*
X0054882Y0075428D02*
X0040282Y0075428D01*
X0040282Y0082428D01*
X0054882Y0082428D01*
X0054882Y0075428D01*
X0126105Y0077813D02*
X0126105Y0082813D01*
X0137105Y0082813D01*
X0137105Y0077813D01*
X0126105Y0077813D01*
X0127065Y0068472D02*
X0127065Y0056661D01*
X0127459Y0060597D02*
X0127546Y0060599D01*
X0127633Y0060605D01*
X0127720Y0060614D01*
X0127806Y0060628D01*
X0127891Y0060645D01*
X0127976Y0060666D01*
X0128059Y0060691D01*
X0128142Y0060719D01*
X0128223Y0060751D01*
X0128302Y0060787D01*
X0128380Y0060826D01*
X0128456Y0060868D01*
X0128530Y0060914D01*
X0128602Y0060963D01*
X0128672Y0061015D01*
X0128739Y0061070D01*
X0128804Y0061128D01*
X0128867Y0061189D01*
X0128926Y0061253D01*
X0128983Y0061319D01*
X0129036Y0061388D01*
X0129087Y0061459D01*
X0129134Y0061532D01*
X0129179Y0061607D01*
X0129219Y0061684D01*
X0129257Y0061762D01*
X0129290Y0061843D01*
X0129321Y0061924D01*
X0129347Y0062007D01*
X0129370Y0062092D01*
X0129389Y0062177D01*
X0129404Y0062262D01*
X0129416Y0062349D01*
X0129424Y0062435D01*
X0129428Y0062522D01*
X0129428Y0062610D01*
X0129424Y0062697D01*
X0129416Y0062783D01*
X0129404Y0062870D01*
X0129389Y0062955D01*
X0129370Y0063040D01*
X0129347Y0063125D01*
X0129321Y0063208D01*
X0129290Y0063289D01*
X0129257Y0063370D01*
X0129219Y0063448D01*
X0129179Y0063525D01*
X0129134Y0063600D01*
X0129087Y0063673D01*
X0129036Y0063744D01*
X0128983Y0063813D01*
X0128926Y0063879D01*
X0128867Y0063943D01*
X0128804Y0064004D01*
X0128739Y0064062D01*
X0128672Y0064117D01*
X0128602Y0064169D01*
X0128530Y0064218D01*
X0128456Y0064264D01*
X0128380Y0064306D01*
X0128302Y0064345D01*
X0128223Y0064381D01*
X0128142Y0064413D01*
X0128059Y0064441D01*
X0127976Y0064466D01*
X0127891Y0064487D01*
X0127806Y0064504D01*
X0127720Y0064518D01*
X0127633Y0064527D01*
X0127546Y0064533D01*
X0127459Y0064535D01*
X0136908Y0068472D02*
X0147931Y0068472D01*
X0157774Y0068472D02*
X0157774Y0056661D01*
X0147931Y0056661D02*
X0136908Y0056661D01*
X0142576Y0054434D02*
X0147576Y0054434D01*
X0147576Y0043434D01*
X0142576Y0043434D01*
X0142576Y0054434D01*
X0140374Y0048077D02*
X0140374Y0043077D01*
X0129374Y0043077D01*
X0129374Y0048077D01*
X0140374Y0048077D01*
X0142548Y0042652D02*
X0147548Y0042652D01*
X0147548Y0031652D01*
X0142548Y0031652D01*
X0142548Y0042652D01*
X0146658Y0078497D02*
X0146658Y0080308D01*
X0145437Y0079388D01*
X0146658Y0080308D02*
X0146658Y0082119D01*
X0145437Y0081168D02*
X0146597Y0080408D01*
D15*
X0085857Y0068866D03*
D16*
X0071288Y0043930D03*
X0071234Y0035686D03*
D17*
X0070701Y0086806D02*
X0069934Y0087573D01*
X0069934Y0088340D01*
X0070701Y0089107D01*
X0072236Y0089107D01*
X0073003Y0088340D01*
X0073003Y0087573D01*
X0072236Y0086806D01*
X0070701Y0086806D01*
X0070701Y0089107D02*
X0069934Y0089875D01*
X0069934Y0090642D01*
X0070701Y0091409D01*
X0072236Y0091409D01*
X0073003Y0090642D01*
X0073003Y0089875D01*
X0072236Y0089107D01*
X0068399Y0091409D02*
X0066865Y0091409D01*
X0067632Y0091409D02*
X0067632Y0087573D01*
X0066865Y0086806D01*
X0066097Y0086806D01*
X0065330Y0087573D01*
X0047413Y0087573D02*
X0046645Y0086806D01*
X0045111Y0086806D01*
X0044343Y0087573D01*
X0045111Y0089107D02*
X0047413Y0089107D01*
X0047413Y0087573D02*
X0047413Y0090642D01*
X0046645Y0091409D01*
X0045111Y0091409D01*
X0044343Y0090642D01*
X0044343Y0089875D01*
X0045111Y0089107D01*
X0042041Y0087573D02*
X0042041Y0091409D01*
X0041274Y0091409D02*
X0042809Y0091409D01*
X0042041Y0087573D02*
X0041274Y0086806D01*
X0040507Y0086806D01*
X0039739Y0087573D01*
D18*
X0023146Y0054344D02*
X0003461Y0054344D01*
X0003461Y0024817D01*
X0023146Y0024817D01*
X0023146Y0054344D01*
M02*
